# AST/ASF file generated using VICON BodyLanguage
# -----------------------------------------------
:version 1.10
:name VICON
:units
  mass 1.0
  length 0.45
  angle deg
:documentation
   .ast/.asf automatically generated from VICON data using
   VICON BodyBuilder and BodyLanguage model FoxedUp or BRILLIANT.MOD
:root
   order TX TY TZ RX RY RZ
   axis XYZ
   position 0 0 0  
   orientation 0 0 0 
:bonedata
  begin
     id 1 
     name lhipjoint
     direction 0.677091 -0.635792 0.370561 
     length 2.74323 
     axis 0 0 0  XYZ
  end
  begin
     id 2 
     name lfemur
     direction 0.34202 -0.939693 0  
     length 7.44995  
     axis 0 0 20  XYZ
    dof rx ry rz
    limits (-160.0 20.0)
           (-70.0 70.0)
           (-60.0 70.0)
  end
  begin
     id 3 
     name ltibia
     direction 0.34202 -0.939693 0   
     length 7.34467   
     axis 0 0 20   XYZ
    dof rx
    limits (-10.0 170.0)
  end
  begin
     id 4 
     name lfoot
     direction 0.101953 -0.280114 0.954537   
     length 1.72105   
     axis -90 7.62852e-016 20   XYZ
    dof rx rz
    limits (-45.0 90.0)
           (-70.0 20.0)
  end
  begin
     id 5 
     name ltoes
     direction 1.53537e-011 -4.21915e-011 1   
     length 0.865872   
     axis -90 7.62852e-016 20   XYZ
    dof rx
    limits (-90.0 20.0)
  end
  begin
     id 6 
     name rhipjoint
     direction -0.695735 -0.620586 0.361699   
     length 2.81045  
     axis 0 0 0  XYZ 
  end
  begin
     id 7 
     name rfemur
     direction -0.34202 -0.939693 0   
     length 7.29387   
     axis 0 0 -20   XYZ
    dof rx ry rz
    limits (-160.0 20.0)
           (-70.0 70.0)
           (-70.0 60.0)
  end
  begin
     id 8 
     name rtibia
     direction -0.34202 -0.939693 0   
     length 7.44935   
     axis 0 0 -20   XYZ
    dof rx
    limits (-10.0 170.0)
 end
 begin
     id 9 
     name rfoot
     direction -0.104163 -0.286184 0.952496   
     length 1.77731  
     axis -90 -7.62852e-016 -20   XYZ
    dof rx rz
    limits (-45.0 90.0)
           (-20.0 70.0)
  end
  begin
     id 10 
     name rtoes
     direction -1.5355e-011 -4.21888e-011 1   
     length 0.892424   
     axis -90 -7.62852e-016 -20   XYZ
    dof rx
    limits (-90.0 20.0)
  end
  begin
     id 11 
     name lowerback
     direction 0.0100202 0.997226 -0.0737589   
     length 2.16892   
     axis 0 0 0   XYZ
    dof rx ry rz
    limits (-20.0 45.0)
           (-30.0 30.0)
           (-30.0 30.0)
  end
  begin
     id 12 
     name upperback
     direction 0.00432398 0.999988 -0.00215019   
     length 2.17326   
     axis 0 0 0   XYZ
    dof rx ry rz
    limits (-20.0 45.0)
           (-30.0 30.0)
           (-30.0 30.0)
  end
  begin
     id 13 
     name thorax
     direction -0.00195047 0.999485 0.0320434   
     length 2.18139   
     axis 0 0 0   XYZ
    dof rx ry rz
    limits (-20.0 45.0)
           (-30.0 30.0)
           (-30.0 30.0)
  end
  begin
     id 14 
     name lowerneck
     direction 0.00782762 0.986241 0.165128   
     length 1.88415   
     axis 0 0 0   XYZ
    dof rx ry rz
    limits (-20.0 45.0)
           (-30.0 30.0)
           (-30.0 30.0)
  end
  begin
     id 15 
     name upperneck
     direction 0.00988667 0.981098 -0.193258   
     length 1.9242   
     axis 0 0 0   XYZ
    dof rx ry rz
    limits (-20.0 45.0)
           (-30.0 30.0)
           (-30.0 30.0)
  end
  begin
     id 16
     name head
     direction 0.00252199 0.996513 -0.0833958  
     length 1.93887  
     axis 0 0 0   XYZ
    dof rx ry rz
    limits (-20.0 45.0)
           (-30.0 30.0)
           (-30.0 30.0)
  end
  begin
     id 17 
     name lclavicle
     direction 0.929492 0.368193 -0.0218667  
     length 3.5955  
     axis 0 0 0   XYZ
    dof ry rz
    limits (-20.0 10.0)
           (0.0 20.0)
  end
  begin
     id 18 
     name lhumerus
     direction 1 -4.48972e-011 1.41911e-027   
     length 5.2795   
     axis 180 -30 -90   XYZ
    dof rx ry rz
    limits (-60.0 90.0)
           (-90.0 90.0)
           (-90.0 90.0)
  end
  begin
     id 19
     name lradius
     direction 1 -4.48963e-011 7.05772e-027   
     length 3.53504   
     axis 180 -30 -90   XYZ
    dof rx
    limits (-10.0 170.0)
  end
  begin
     id 20
     name lwrist
     direction 1 -4.48957e-011 9.54866e-027   
     length 1.76752   
     axis -7.69462e-015 90 90   XYZ
    dof ry
    limits (-180.0 0.0)
 end
  begin
     id 21 
     name lhand
     direction 1 -4.48979e-011 1.90973e-026   
     length 0.667948   
     axis -1.21857e-014 90 90   XYZ
    dof rx rz
    limits (-90.0 90.0)
           (-45.0 45.0)
  end
  begin
     id 22 
     name lfingers
     direction 1 -4.48987e-011 3.81946e-026   
     length 0.538517   
     axis -2.43714e-014 90 90   XYZ
    dof rx
    limits (0.0 90.0)
  end
  begin
     id 23
     name lthumb
     direction 0.707107 -6.34962e-011 0.707107   
     length 0.773206   
     axis -90 45 2.85299e-015   XYZ
    dof rx rz
    limits (-45.0 45.0)
           (-45.0 45.0)
  end
  begin
     id 24 
     name rclavicle
     direction -0.898763 0.414256 -0.143584   
     length 3.5176  
     axis 0 0 0   XYZ 
    dof ry rz
    limits (-10.0 20.0)
           (-20.0 0.0)
  end
  begin
     id 25 
     name rhumerus
     direction -1 -4.48971e-011 1.129e-027  
     length 5.25035   
     axis 180 30 90   XYZ
    dof rx ry rz
    limits (-90.0 60.0)
           (-90.0 90.0)
           (-90.0 90.0)
  end
  begin
     id 26 
     name rradius
     direction -1 -4.48955e-011 6.34664e-027   
     length 3.58884   
     axis 180 30 90   XYZ
    dof rx
    limits (-10.0 170.0)
  end
  begin
     id 27 
     name rwrist
     direction -1 -4.48966e-011 9.54866e-027   
     length 1.79442   
     axis -7.69462e-015 -90 -90   XYZ
    dof ry
    limits (-180.0 0.0)
  end
  begin
     id 28
     name rhand
     direction -1 -4.48973e-011 1.90973e-026   
     length 0.779235   
     axis -1.21857e-014 -90 -90   XYZ
    dof rx rz
    limits (-90.0 90.0)
           (-45.0 45.0)
  end
  begin
     id 29
     name rfingers
     direction -1 -4.48984e-011 3.81946e-026   
     length 0.62824   
     axis -2.43714e-014 -90 -90   XYZ
    dof rx
    limits (0.0 90.0)
  end
  begin
     id 30
     name rthumb
     direction -0.707107 -6.34968e-011 0.707107   
     length 0.90203   
     axis -90 -45 -2.85299e-015   XYZ
    dof rx rz
    limits (-45.0 45.0)
           (-45.0 45.0)
  end
:hierarchy
  begin
    root lhipjoint rhipjoint lowerback
    lhipjoint lfemur
    lfemur ltibia
    ltibia lfoot
    lfoot ltoes
    rhipjoint rfemur
    rfemur rtibia
    rtibia rfoot
    rfoot rtoes
    lowerback upperback
    upperback thorax
    thorax lowerneck lclavicle rclavicle
    lowerneck upperneck
    upperneck head
    lclavicle lhumerus
    lhumerus lradius
    lradius lwrist
    lwrist lhand lthumb
    lhand lfingers
    rclavicle rhumerus
    rhumerus rradius
    rradius rwrist
    rwrist rhand rthumb
    rhand rfingers
  end

#!OML:ASF I:\Random Stuff\random\construction\7_22_03\Session 2\subj1.ASF
:FULLY-SPECIFIED
:DEGREES
227
root -1.84518 17.8048 5.87025 3.222 61.7409 -8.92681
lowerback 1.49996 0.976631 1.236
upperback -1.27598 1.33981 0.16291
thorax -2.12409 0.65289 -0.569689
lowerneck -22.2553 -0.816266 0.488784
upperneck 42.1511 -1.19809 1.91071
head 20.4535 0.267358 0.739183
rclavicle 4.51241e-014 6.75868e-015
rhumerus -17.5186 22.0609 -67.9594
rradius 65.3498
rwrist 1.49979
rhand -34.7969 9.97074
rfingers 7.12502
rthumb -7.94873 -19.8598
lclavicle 4.51241e-014 6.75868e-015
lhumerus -16.8145 -20.4872 77.6041
lradius 75.3413
lwrist 30.0344
lhand -25.3625 73.4593
lfingers 7.12502
lthumb -178.839 76.5641
rfemur -10.3442 13.3356 21.3383
rtibia 9.09038
rfoot -5.67096 -17.095
rtoes -17.8585
lfemur -17.2426 -18.6233 -9.45877
ltibia 22.7982
lfoot -15.5286 15.9439
ltoes -27.0272
228
root -1.84268 17.8051 5.87258 3.2413 61.8757 -8.85348
lowerback 1.55362 0.967001 1.29467
upperback -1.26881 1.32959 0.182179
thorax -2.14625 0.646915 -0.583413
lowerneck -22.4624 -0.033128 1.25123
upperneck 42.2822 -0.309838 1.95529
head 20.5915 0.743816 0.838984
rclavicle -1.41634e-014 -2.38542e-015
rhumerus -17.6835 21.6715 -68.0218
rradius 65.5935
rwrist 1.51836
rhand -34.5556 9.73659
rfingers 7.12502
rthumb -7.71583 -20.1026
lclavicle -1.41634e-014 -2.38542e-015
lhumerus -16.7324 -20.7297 77.6369
lradius 75.1316
lwrist 30.9777
lhand -25.5981 73.5819
lfingers 7.12502
lthumb -179.066 76.4404
rfemur -10.2651 13.2381 21.3218
rtibia 9.09269
rfoot -5.68827 -17.1303
rtoes -17.5438
lfemur -17.2452 -18.4029 -9.54133
ltibia 22.8395
lfoot -15.5212 15.5776
ltoes -26.8856
229
root -1.84113 17.8027 5.87652 3.10258 61.9919 -8.91286
lowerback 1.64493 0.98122 1.40567
upperback -1.22622 1.35344 0.231404
thorax -2.15209 0.657623 -0.597179
lowerneck -22.525 0.718823 1.99689
upperneck 42.2959 0.568955 1.92644
head 20.6176 1.19927 0.89879
rclavicle -2.98177e-015 3.18055e-014
rhumerus -17.8065 21.2635 -68.0193
rradius 65.879
rwrist 1.56894
rhand -34.3778 9.68602
rfingers 7.12502
rthumb -7.5442 -20.1594
lclavicle -2.98177e-015 3.18055e-014
lhumerus -16.6588 -20.9169 77.7201
lradius 74.9645
lwrist 31.0143
lhand -25.67 73.7377
lfingers 7.12502
lthumb -179.136 76.2843
rfemur -10.1263 13.1623 21.3796
rtibia 9.06064
rfoot -5.6516 -17.1686
rtoes -17.3467
lfemur -17.2053 -18.2034 -9.55269
ltibia 22.8835
lfoot -15.5709 15.4561
ltoes -28.2378
230
root -1.8408 17.8002 5.88003 2.93198 62.0903 -9.04082
lowerback 1.7193 1.01173 1.58323
upperback -1.20528 1.40101 0.27507
thorax -2.16842 0.679041 -0.654657
lowerneck -22.5471 1.46502 2.83962
upperneck 42.3275 1.41932 1.84781
head 20.6592 1.65299 0.910754
rclavicle 7.524e-014 -1.23246e-014
rhumerus -17.9589 20.8806 -68.0283
rradius 66.1642
rwrist 1.75567
rhand -34.3195 9.96288
rfingers 7.12502
rthumb -7.48799 -19.8846
lclavicle 7.524e-014 -1.23246e-014
lhumerus -16.6299 -21.1536 77.7974
lradius 74.8943
lwrist 30.244
lhand -25.8223 73.9447
lfingers 7.12502
lthumb -179.283 76.0768
rfemur -10.0027 13.1071 21.4645
rtibia 8.98623
rfoot -5.65528 -17.1768
rtoes -16.9973
lfemur -17.2179 -17.8765 -9.52829
ltibia 22.9421
lfoot -15.4664 15.6753
ltoes -32.3951
231
root -1.83985 17.8012 5.88332 2.78557 62.1889 -9.19194
lowerback 1.72312 1.05823 1.82284
upperback -1.20314 1.47025 0.297475
thorax -2.16163 0.710351 -0.768192
lowerneck -22.5575 2.17629 3.67373
upperneck 42.4483 2.25639 1.71223
head 20.7744 2.09348 0.897711
rclavicle 4.57205e-015 1.55052e-014
rhumerus -18.186 20.5541 -68.0428
rradius 66.4772
rwrist 2.20124
rhand -34.2922 10.0294
rfingers 7.12502
rthumb -7.4616 -19.819
lclavicle 4.57205e-015 1.55052e-014
lhumerus -16.5805 -21.4732 77.8344
lradius 74.8044
lwrist 28.8741
lhand -26.0385 73.9928
lfingers 7.12502
lthumb -179.491 76.0281
rfemur -9.92721 13.0535 21.5517
rtibia 8.89531
rfoot -5.67774 -17.1906
rtoes -16.869
lfemur -17.2713 -17.5409 -9.48261
ltibia 23.008
lfoot -15.2063 14.7581
ltoes -31.0331
232
root -1.83874 17.8021 5.88794 2.73419 62.2801 -9.23039
lowerback 1.69354 1.10943 1.99438
upperback -1.17635 1.54259 0.317955
thorax -2.11182 0.744782 -0.844601
lowerneck -22.5 2.83028 4.45861
upperneck 42.5046 3.07475 1.47344
head 20.8403 2.50127 0.833606
rclavicle 4.16951e-014 1.31198e-014
rhumerus -18.4017 20.3195 -68.0153
rradius 66.8036
rwrist 2.80147
rhand -34.3477 9.75654
rfingers 7.12502
rthumb -7.51516 -20.09
lclavicle 4.16951e-014 1.31198e-014
lhumerus -16.4465 -21.7831 77.8658
lradius 74.595
lwrist 26.9852
lhand -26.0528 73.7269
lfingers 7.12502
lthumb -179.505 76.2939
rfemur -9.83997 13.002 21.5733
rtibia 8.782
rfoot -5.62406 -17.2271
rtoes -17.0481
lfemur -17.2971 -17.4125 -9.47584
ltibia 23.062
lfoot -15.2937 14.3267
ltoes -30.8267
233
root -1.83887 17.8008 5.89393 2.74732 62.3535 -9.18451
lowerback 1.70487 1.16112 2.1097
upperback -1.15042 1.61502 0.340733
thorax -2.08707 0.779896 -0.888051
lowerneck -22.399 3.45019 5.2639
upperneck 42.5306 3.88427 1.12319
head 20.8923 2.89162 0.705906
rclavicle -7.32522e-014 1.98785e-014
rhumerus -18.5752 20.1257 -67.9563
rradius 67.1115
rwrist 3.30979
rhand -34.4727 9.3047
rfingers 7.12502
rthumb -7.63583 -20.5374
lclavicle -7.32522e-014 1.98785e-014
lhumerus -16.269 -22.1534 77.8736
lradius 74.2957
lwrist 24.8143
lhand -26.0571 73.5177
lfingers 7.12502
lthumb -179.509 76.5031
rfemur -9.759 12.9668 21.5616
rtibia 8.71099
rfoot -5.53249 -17.257
rtoes -17.3615
lfemur -17.2971 -17.5442 -9.48258
ltibia 23.0855
lfoot -15.2746 15.171
ltoes -33.6196
234
root -1.83916 17.8009 5.901 2.84755 62.415 -9.03689
lowerback 1.74637 1.22109 2.20122
upperback -1.13937 1.6984 0.340101
thorax -2.09395 0.820196 -0.943474
lowerneck -22.3114 4.06074 6.09187
upperneck 42.5991 4.71815 0.685954
head 21.0022 3.28246 0.539941
rclavicle -2.48481e-015 -9.93923e-015
rhumerus -18.7597 19.9498 -67.8758
rradius 67.4499
rwrist 3.57571
rhand -34.4944 8.84045
rfingers 7.12502
rthumb -7.65679 -21.0009
lclavicle -2.48481e-015 -9.93923e-015
lhumerus -16.1317 -22.6735 77.836
lradius 74.0364
lwrist 22.4244
lhand -26.1406 73.5838
lfingers 7.12502
lthumb -179.59 76.4369
rfemur -9.73593 12.9444 21.5194
rtibia 8.77597
rfoot -5.52317 -17.3068
rtoes -17.5618
lfemur -17.2482 -17.7714 -9.53215
ltibia 23.0636
lfoot -15.2645 15.1334
ltoes -31.9161
235
root -1.84025 17.802 5.90812 3.01336 62.494 -8.79502
lowerback 1.80309 1.25268 2.23604
upperback -1.11696 1.74289 0.35198
thorax -2.10076 0.842044 -0.953346
lowerneck -22.1749 4.65058 6.85867
upperneck 42.6363 5.57187 0.211513
head 21.0949 3.66409 0.369569
rclavicle -2.16178e-014 5.76476e-015
rhumerus -18.925 19.8796 -67.7822
rradius 67.8406
rwrist 3.64325
rhand -34.3791 8.43344
rfingers 7.12502
rthumb -7.5455 -21.412
lclavicle -2.16178e-014 5.76476e-015
lhumerus -16.071 -23.1392 77.7882
lradius 73.8671
lwrist 19.8561
lhand -26.0344 73.7436
lfingers 7.12502
lthumb -179.487 76.2773
rfemur -9.74027 12.8999 21.4293
rtibia 8.93014
rfoot -5.60486 -17.3712
rtoes -17.4351
lfemur -17.1681 -17.7116 -9.66713
ltibia 23.0103
lfoot -15.1691 14.3598
ltoes -28.3607
236
root -1.84314 17.8027 5.91443 3.17382 62.6136 -8.5631
lowerback 1.87537 1.26566 2.27598
upperback -1.08447 1.76355 0.388418
thorax -2.10731 0.852206 -0.94039
lowerneck -22.0867 5.17304 7.50661
upperneck 42.7704 6.38323 -0.255437
head 21.2809 4.01227 0.220825
rclavicle -3.23025e-015 -1.17283e-014
rhumerus -19.0811 19.7734 -67.6683
rradius 68.2568
rwrist 3.82739
rhand -34.1375 8.18326
rfingers 7.12502
rthumb -7.31228 -21.6704
lclavicle -3.23025e-015 -1.17283e-014
lhumerus -15.918 -23.5361 77.7235
lradius 73.6207
lwrist 17.5743
lhand -25.7896 73.7808
lfingers 7.12502
lthumb -179.251 76.2408
rfemur -9.7841 12.8123 21.3321
rtibia 9.13749
rfoot -5.73929 -17.4261
rtoes -17.2308
lfemur -17.1236 -17.5914 -9.79963
ltibia 22.9384
lfoot -14.825 13.5804
ltoes -25.29
